# xmcd CD database file
#
# Track frame offsets:
#	150
#	4480
#	28695
#	60675
#	92627
#	113335
#	133295
#	154927
#	185430
#	218455
#	244430
#	268842
#	303272
#
# Disc length: 4354 seconds
#
# Revision: 15
# Processed by: cddbd v1.5.2PL0 Copyright (c) Steve Scherf et al.
# Submitted via: CDex 1.70beta3
#
DISCID=b311000d
DTITLE=KOTOKO - 羽 -hane-
DYEAR=2004
DGENRE=J-Pop
TTITLE0=Introduction
TTITLE1=Asura
TTITLE2=冬の雫
TTITLE3=疾風雲 －羽Ver.－
TTITLE4=Gratitude ～大きな栗の木の下で～
TTITLE5=幻影
TTITLE6=痛いよ
TTITLE7=ひとりごと　－羽Ver.－
TTITLE8=声が届くなら
TTITLE9=Lament －羽Ver.－
TTITLE10=足あと
TTITLE11=羽 －羽Ver.－
TTITLE12=カナリヤ - SORMA No.3 Re-mix -
EXTD=YEAR: 2004
EXTT0=
EXTT1=
EXTT2=
EXTT3=
EXTT4=
EXTT5=
EXTT6=
EXTT7=
EXTT8=
EXTT9=
EXTT10=
EXTT11=
EXTT12=
PLAYORDER=
